<svg width="208" height="40" viewBox="0 0 208 40" fill="none" xmlns="http://www.w3.org/2000/svg">
<circle cx="20" cy="20" r="19.6429" stroke="#E6E6E6" stroke-width="0.714286"/>
<path opacity="0.4" d="M17.99 25.98C22.4028 25.98 25.98 22.4028 25.98 17.99C25.98 13.5772 22.4028 10 17.99 10C13.5772 10 10 13.5772 10 17.99C10 22.4028 13.5772 25.98 17.99 25.98Z" fill="#34CAA5"/>
<path d="M29.97 23.99C29.97 27.29 27.29 29.97 23.99 29.97C21.95 29.97 20.16 28.95 19.08 27.4C23.44 26.91 26.91 23.44 27.4 19.08C28.95 20.16 29.97 21.95 29.97 23.99Z" fill="#34CAA5"/>
<path d="M19.45 17.71L17.05 16.87C16.81 16.79 16.76 16.77 16.76 16.42C16.76 16.16 16.94 15.95 17.17 15.95H18.67C18.99 15.95 19.25 16.24 19.25 16.6C19.25 17.01 19.59 17.35 20 17.35C20.41 17.35 20.75 17.01 20.75 16.6C20.75 15.45 19.86 14.51 18.75 14.46V14.41C18.75 14 18.41 13.66 18 13.66C17.59 13.66 17.25 13.99 17.25 14.41V14.46H17.16C16.11 14.46 15.25 15.34 15.25 16.43C15.25 17.38 15.67 17.99 16.54 18.29L18.95 19.13C19.19 19.21 19.24 19.23 19.24 19.58C19.24 19.84 19.06 20.05 18.83 20.05H17.33C17.01 20.05 16.75 19.76 16.75 19.4C16.75 18.99 16.41 18.65 16 18.65C15.59 18.65 15.25 18.99 15.25 19.4C15.25 20.55 16.14 21.49 17.25 21.54V21.6C17.25 22.01 17.59 22.35 18 22.35C18.41 22.35 18.75 22.01 18.75 21.6V21.55H18.84C19.89 21.55 20.75 20.67 20.75 19.58C20.75 18.63 20.32 18.02 19.45 17.71Z" fill="#34CAA5"/>
<path d="M204.994 11.4667H207V36L103 36V14.4536L106.009 21.9203L107.204 24.9069H108.606L111.408 21.9203L113.37 24.907L119.256 24.9072L122.339 21.9204L124.021 17.4396L126.468 19.6803L128.675 21.9203L129.364 25.3333L130.765 24.9069H132.486L135.695 14.4536L136.698 17.4403L138.303 14.4536L139.506 19.6803L142.716 10.7203L144.521 14.4536H147.931L151.541 6.98696L153.748 10.7203L156.653 8.48L160.194 14.4533L162.47 4L164.118 14.4533L175.107 18.9333L176.511 15.9466H177.915L181.125 11.4667H184.334L185.538 15.9466L190.352 6.98666L192.357 18.9333L193.36 14.4533H195.567L197.573 4L199.578 12.96L200.581 8.48H203.189L204.994 11.4667Z" fill="url(#paint0_linear_51_1275)" fill-opacity="0.16"/>
<path d="M207 11.4667H204.994L203.189 8.47999H200.581L199.578 12.96L197.573 4L195.567 14.4533H193.36L192.357 18.9333L190.352 6.98665L185.538 15.9466L184.334 11.4667H181.125L177.915 15.9466H176.511L175.107 18.9333L164.118 14.4533L162.47 4L160.194 14.4533L156.653 8.47999L153.748 10.7203L151.541 6.98695L147.931 14.4536H144.521L142.716 10.7203L139.506 19.6803L138.303 14.4536L136.698 17.4403L135.695 14.4536L132.486 24.9069H130.765L129.364 25.3333L128.675 21.9203L126.468 19.6803L124.021 17.4396L122.339 21.9204L119.256 24.9072L113.37 24.907L111.408 21.9203L108.606 24.9069H107.204L106.009 21.9203L103 14.4536" stroke="#66C87B" stroke-linecap="round"/>
<defs>
<linearGradient id="paint0_linear_51_1275" x1="155" y1="36" x2="155" y2="4" gradientUnits="userSpaceOnUse">
<stop stop-color="#77B900" stop-opacity="0"/>
<stop offset="0.809892" stop-color="#77B900"/>
</linearGradient>
</defs>
</svg>
