<svg width="208" height="40" viewBox="0 0 208 40" fill="none" xmlns="http://www.w3.org/2000/svg">
<circle cx="20" cy="20" r="19.6429" stroke="#E6E6E6" stroke-width="0.714286"/>
<path d="M24.25 30.5C25.2165 30.5 26 29.7165 26 28.75C26 27.7835 25.2165 27 24.25 27C23.2835 27 22.5 27.7835 22.5 28.75C22.5 29.7165 23.2835 30.5 24.25 30.5Z" fill="#34CAA5"/>
<path d="M16.25 30.5C17.2165 30.5 18 29.7165 18 28.75C18 27.7835 17.2165 27 16.25 27C15.2835 27 14.5 27.7835 14.5 28.75C14.5 29.7165 15.2835 30.5 16.25 30.5Z" fill="#34CAA5"/>
<path opacity="0.4" d="M12.84 11.94L12.64 14.39C12.6 14.86 12.97 15.25 13.44 15.25H28.75C29.17 15.25 29.52 14.93 29.55 14.51C29.68 12.74 28.33 11.3 26.56 11.3H14.29C14.19 10.86 13.99 10.44 13.68 10.09C13.19 9.56 12.49 9.25 11.77 9.25H10C9.59 9.25 9.25 9.59 9.25 10C9.25 10.41 9.59 10.75 10 10.75H11.74C12.05 10.75 12.34 10.88 12.55 11.1C12.76 11.33 12.86 11.63 12.84 11.94Z" fill="#34CAA5"/>
<path d="M28.5101 16.75H13.1701C12.7501 16.75 12.4101 17.07 12.3701 17.48L12.0101 21.83C11.8701 23.53 13.2101 25 14.9201 25H26.0401C27.5401 25 28.8601 23.77 28.9701 22.27L29.3001 17.6C29.3401 17.14 28.9801 16.75 28.5101 16.75Z" fill="#34CAA5"/>
<path d="M105.006 11.4667H103V36L207 36V14.4536L203.991 21.9203L202.796 24.9069H201.394L198.592 21.9203L196.63 24.907L190.744 24.9072L187.661 21.9204L185.979 17.4396L183.532 19.6803L181.325 21.9203L180.636 25.3333L179.235 24.9069H177.514L174.305 14.4536L173.302 17.4403L171.697 14.4536L170.494 19.6803L167.284 10.7203L165.479 14.4536H162.069L158.459 6.98696L156.252 10.7203L153.347 8.48L149.806 14.4533L147.53 4L145.882 14.4533L134.893 18.9333L133.489 15.9466H132.085L128.875 11.4667H125.666L124.462 15.9466L119.648 6.98666L117.643 18.9333L116.64 14.4533H114.433L112.427 4L110.422 12.96L109.419 8.48H106.811L105.006 11.4667Z" fill="url(#paint0_linear_51_885)" fill-opacity="0.16"/>
<path d="M103 11.4667H105.006L106.811 8.47999H109.419L110.422 12.96L112.427 4L114.433 14.4533H116.64L117.643 18.9333L119.648 6.98665L124.462 15.9466L125.666 11.4667H128.875L132.085 15.9466H133.489L134.893 18.9333L145.882 14.4533L147.53 4L149.806 14.4533L153.347 8.47999L156.252 10.7203L158.459 6.98695L162.069 14.4536H165.479L167.284 10.7203L170.494 19.6803L171.697 14.4536L173.302 17.4403L174.305 14.4536L177.514 24.9069H179.235L180.636 25.3333L181.325 21.9203L183.532 19.6803L185.979 17.4396L187.661 21.9204L190.744 24.9072L196.63 24.907L198.592 21.9203L201.394 24.9069H202.796L203.991 21.9203L207 14.4536" stroke="#ED544E" stroke-linecap="round"/>
<defs>
<linearGradient id="paint0_linear_51_885" x1="155" y1="36" x2="155" y2="4" gradientUnits="userSpaceOnUse">
<stop stop-color="#ED544E" stop-opacity="0"/>
<stop offset="0.809892" stop-color="#ED544E"/>
</linearGradient>
</defs>
</svg>
